<?xml version="1.0" standalone="no"?>
<svg xmlns:xlink="http://www.w3.org/1999/xlink" id="wave" style="transform:rotate(0deg); transition: 0.3s" viewBox="0 0 1440 490" version="1.1" xmlns="http://www.w3.org/2000/svg"><defs><linearGradient id="sw-gradient-0" x1="0" x2="0" y1="1" y2="0"><stop stop-color="rgba(32, 172, 164, 1)" offset="0%"/><stop stop-color="rgba(130.675, 255, 11, 1)" offset="100%"/></linearGradient></defs><path style="transform:translate(0, 0px); opacity:1" fill="url(#sw-gradient-0)" d="M0,441L40,424.7C80,408,160,376,240,310.3C320,245,400,147,480,130.7C560,114,640,180,720,204.2C800,229,880,212,960,187.8C1040,163,1120,131,1200,98C1280,65,1360,33,1440,16.3C1520,0,1600,0,1680,73.5C1760,147,1840,294,1920,359.3C2000,425,2080,408,2160,375.7C2240,343,2320,294,2400,294C2480,294,2560,343,2640,310.3C2720,278,2800,163,2880,138.8C2960,114,3040,180,3120,187.8C3200,196,3280,147,3360,114.3C3440,82,3520,65,3600,98C3680,131,3760,212,3840,277.7C3920,343,4000,392,4080,408.3C4160,425,4240,408,4320,334.8C4400,261,4480,131,4560,114.3C4640,98,4720,196,4800,245C4880,294,4960,294,5040,269.5C5120,245,5200,196,5280,163.3C5360,131,5440,114,5520,114.3C5600,114,5680,131,5720,138.8L5760,147L5760,490L5720,490C5680,490,5600,490,5520,490C5440,490,5360,490,5280,490C5200,490,5120,490,5040,490C4960,490,4880,490,4800,490C4720,490,4640,490,4560,490C4480,490,4400,490,4320,490C4240,490,4160,490,4080,490C4000,490,3920,490,3840,490C3760,490,3680,490,3600,490C3520,490,3440,490,3360,490C3280,490,3200,490,3120,490C3040,490,2960,490,2880,490C2800,490,2720,490,2640,490C2560,490,2480,490,2400,490C2320,490,2240,490,2160,490C2080,490,2000,490,1920,490C1840,490,1760,490,1680,490C1600,490,1520,490,1440,490C1360,490,1280,490,1200,490C1120,490,1040,490,960,490C880,490,800,490,720,490C640,490,560,490,480,490C400,490,320,490,240,490C160,490,80,490,40,490L0,490Z"/></svg>